<svg width="46" height="61" viewBox="0 0 46 61" fill="none" xmlns="http://www.w3.org/2000/svg">
<path d="M4.4969 8.72102C4.31778 8.25428 4.2193 7.74297 4.2193 7.20778C4.2193 5.00636 5.89096 3.22073 7.95509 3.22073C8.98937 3.22073 9.92517 3.66998 10.6028 4.39468C11.2684 2.32709 13.1057 0.839378 15.2698 0.839378C16.737 0.839378 18.0548 1.5227 18.9577 2.60905C19.4847 1.08634 20.8563 0 22.4652 0C24.1667 0 25.601 1.21533 26.0532 2.87517C26.9563 1.6375 28.3652 0.839497 29.9486 0.839497C32.1128 0.839497 33.9515 2.32721 34.6172 4.3948C35.2934 3.66998 36.2292 3.22085 37.2649 3.22085C39.3276 3.22085 41.0007 5.00648 41.0007 7.2079C41.0007 7.74309 40.9007 8.2544 40.7215 8.72114C43.2424 8.95688 45.22 11.214 45.22 13.9665C45.22 15.3364 44.729 16.5853 43.9245 17.5218L36.4904 26.963L24.8488 30.4673L10.9685 26.4851L4.2522 24.0957L1.29404 17.5218C0.491052 16.5852 0 15.3364 0 13.9665C0 11.214 1.97606 8.95688 4.4969 8.72102Z" fill="#F7B239"/>
<path d="M43.9263 17.522H36.5204H8.70156H1.29579H1.24805L6.23301 60.53H11.9463H33.2742H38.989L43.974 17.522H43.9263Z" fill="#F95428"/>
<path d="M36.5175 17.522L33.2713 60.5299H26.6133L27.0193 46.2258C29.2178 44.6902 29.3909 33.6914 27.4177 32.1238L27.4191 32.1223L27.8326 17.5219H36.5175V17.522Z" fill="#F2F2F2"/>
<path d="M18.2 46.2277L18.6045 60.5302H11.9449L8.7002 17.5222H17.3866L17.8 32.121L17.8014 32.1226C15.8285 33.6899 16.0016 44.6921 18.2 46.2277Z" fill="#F2F2F2"/>
<path d="M15.2423 8.72102C15.0632 8.25428 14.9647 7.74297 14.9647 7.20778C14.9647 5.00636 16.6364 3.22073 18.7005 3.22073C19.7348 3.22073 20.6706 3.66998 21.3482 4.39468C21.8967 2.69098 23.2417 1.3832 24.9087 0.974861C24.2536 0.368736 23.4004 0 22.4651 0C20.8561 0 19.4846 1.08635 18.9577 2.60917C18.0547 1.52282 16.7369 0.839497 15.2698 0.839497C13.1057 0.839497 11.2684 2.32721 10.6028 4.3948C9.92517 3.66998 8.98937 3.22085 7.95509 3.22085C5.89096 3.22085 4.2193 5.00648 4.2193 7.2079C4.2193 7.74309 4.31778 8.2544 4.4969 8.72114C1.97606 8.95688 0 11.214 0 13.9665C0 15.3364 0.491052 16.5853 1.29404 17.5219H8.69981H12.0395C11.2365 16.5852 10.7454 15.3364 10.7454 13.9665C10.7453 11.214 12.7214 8.95688 15.2423 8.72102Z" fill="#E09B2D"/>
<path d="M8.70156 17.522L11.9463 60.53H6.23301L1.24805 17.522H1.29579H8.70156Z" fill="#E54728"/>
<path d="M27.4206 32.1238C29.3937 33.6912 30.6713 36.1984 30.6713 39.0258C30.6713 42.0395 29.2206 44.6901 27.0222 46.2257C25.755 47.1129 24.2387 47.6274 22.6103 47.6274C20.9835 47.6274 19.4671 47.1129 18.2015 46.2273C16.003 44.6917 14.5508 42.0397 14.5508 39.0258C14.5508 36.1984 15.8299 33.6896 17.8029 32.1222C19.1447 31.055 20.8088 30.4242 22.6103 30.4242C24.4117 30.4241 26.0774 31.0564 27.4206 32.1238Z" fill="#F7B239"/>
</svg>
