<svg width="18" height="15" viewBox="0 0 18 15" fill="none" xmlns="http://www.w3.org/2000/svg">
<path d="M15.2378 2.11671C14.0905 1.5903 12.8602 1.20246 11.5739 0.980332C11.5505 0.976045 11.5271 0.986759 11.515 1.00819C11.3568 1.2896 11.1815 1.65672 11.0588 1.94528C9.6753 1.73815 8.29889 1.73815 6.94374 1.94528C6.82099 1.65031 6.63936 1.2896 6.48043 1.00819C6.46836 0.987474 6.44496 0.97676 6.42154 0.980332C5.13593 1.20175 3.90567 1.58959 2.7577 2.11671C2.74776 2.12099 2.73924 2.12814 2.73359 2.13742C0.400044 5.62369 -0.239213 9.02427 0.0743851 12.3827C0.075804 12.3991 0.0850274 12.4148 0.0977985 12.4248C1.63741 13.5555 3.12878 14.2419 4.59246 14.6969C4.61588 14.704 4.6407 14.6954 4.65561 14.6761C5.00184 14.2033 5.31048 13.7048 5.57511 13.1805C5.59072 13.1498 5.57582 13.1134 5.5439 13.1012C5.05435 12.9155 4.5882 12.6891 4.1398 12.432C4.10433 12.4113 4.10149 12.3605 4.13412 12.3362C4.22848 12.2655 4.32286 12.192 4.41297 12.1177C4.42927 12.1041 4.45198 12.1013 4.47115 12.1098C7.41696 13.4548 10.6062 13.4548 13.5172 12.1098C13.5364 12.1005 13.5591 12.1034 13.5761 12.117C13.6662 12.1913 13.7606 12.2655 13.8557 12.3362C13.8883 12.3605 13.8862 12.4113 13.8507 12.432C13.4023 12.6941 12.9361 12.9155 12.4459 13.1005C12.414 13.1127 12.3998 13.1498 12.4154 13.1805C12.6857 13.704 12.9943 14.2026 13.3342 14.6754C13.3484 14.6954 13.3739 14.704 13.3973 14.6969C14.8681 14.2419 16.3595 13.5555 17.8991 12.4248C17.9126 12.4148 17.9211 12.3998 17.9225 12.3834C18.2978 8.5007 17.2939 5.12801 15.2612 2.13813C15.2562 2.12814 15.2477 2.12099 15.2378 2.11671ZM6.01502 10.3378C5.12812 10.3378 4.39735 9.52353 4.39735 8.52357C4.39735 7.52361 5.11395 6.70937 6.01502 6.70937C6.92315 6.70937 7.64686 7.53076 7.63266 8.52357C7.63266 9.52353 6.91606 10.3378 6.01502 10.3378ZM11.9961 10.3378C11.1092 10.3378 10.3784 9.52353 10.3784 8.52357C10.3784 7.52361 11.095 6.70937 11.9961 6.70937C12.9042 6.70937 13.6279 7.53076 13.6137 8.52357C13.6137 9.52353 12.9042 10.3378 11.9961 10.3378Z" fill="white"/>
</svg>
