<svg width="16" height="17" viewBox="0 0 16 17" fill="none" xmlns="http://www.w3.org/2000/svg">
<path d="M0.717656 5.86771C0.717656 4.84391 0.720188 3.82011 0.714616 2.79632C0.714109 2.66157 0.752103 2.60027 0.882294 2.55316C3.208 1.71275 5.53066 0.86524 7.85586 0.0248253C7.94096 -0.00607605 8.05646 -0.00911551 8.14106 0.0212792C10.4602 0.859667 12.7768 1.70616 15.0959 2.54455C15.2372 2.59571 15.2864 2.6565 15.2858 2.81101C15.2793 4.66914 15.2747 6.52727 15.2833 8.3854C15.297 11.3372 14.0169 13.6052 11.6461 15.2956C10.5843 16.053 9.42321 16.6153 8.1674 16.9729C8.0747 16.9993 7.96173 17.0119 7.87207 16.9851C5.57321 16.283 3.58742 15.1062 2.15178 13.1285C1.20346 11.8215 0.754636 10.3383 0.723228 8.73038C0.704485 7.77649 0.719682 6.82159 0.719682 5.8672C0.719175 5.86771 0.718669 5.86771 0.717656 5.86771ZM11.1684 5.63265C9.69778 7.10376 8.22971 8.57233 6.74898 10.0536C6.10259 9.40717 5.44657 8.75065 4.80068 8.10476C4.52004 8.3854 4.23939 8.66554 3.98154 8.9239C4.91719 9.85955 5.86247 10.8048 6.78596 11.7288C8.52454 9.98974 10.2783 8.23596 12.023 6.4908C11.7626 6.2289 11.487 5.9523 11.1684 5.63265Z" fill="white"/>
</svg>
