<svg width="18" height="16" viewBox="0 0 18 16" fill="none" xmlns="http://www.w3.org/2000/svg">
<path d="M5.66262 15.3125C12.4534 15.3125 16.1687 9.68506 16.1687 4.80643C16.1687 4.64822 16.1652 4.4865 16.1582 4.3283C16.8809 3.80563 17.5046 3.15822 18 2.4165C17.3269 2.71598 16.6122 2.91157 15.8804 2.99658C16.651 2.53471 17.2279 1.80913 17.5043 0.954356C16.7794 1.38395 15.9867 1.68699 15.1601 1.85049C14.6031 1.2587 13.8667 0.866868 13.0648 0.735569C12.2628 0.60427 11.4399 0.740818 10.7233 1.1241C10.0067 1.50739 9.43635 2.11606 9.10039 2.85601C8.76442 3.59597 8.68157 4.42599 8.86465 5.21775C7.39687 5.1441 5.96095 4.76281 4.64999 4.0986C3.33902 3.4344 2.18227 2.50211 1.25473 1.36217C0.7833 2.17496 0.639042 3.13676 0.851273 4.0521C1.0635 4.96743 1.6163 5.76762 2.3973 6.29002C1.81097 6.2714 1.23748 6.11354 0.724219 5.82947V5.87518C0.723693 6.72814 1.01857 7.55497 1.55873 8.21511C2.09889 8.87525 2.85099 9.32795 3.68719 9.49627C3.14404 9.64488 2.57399 9.66653 2.02113 9.55955C2.25709 10.2931 2.71618 10.9347 3.33433 11.3948C3.95248 11.8549 4.69884 12.1105 5.46926 12.126C4.16132 13.1534 2.54563 13.7106 0.882422 13.708C0.587465 13.7075 0.292799 13.6895 0 13.6538C1.68964 14.7378 3.65515 15.3136 5.66262 15.3125Z" fill="white"/>
</svg>
