<svg width="1920" height="28" viewBox="0 0 1920 28" fill="none" xmlns="http://www.w3.org/2000/svg">
<rect x="1" y="1" width="1918" height="26" fill="#E57C5E" stroke="#F90000" stroke-width="2"/>
<rect x="10" y="5" width="11" height="18" rx="3" fill="#3C0000"/>
<rect x="31" y="5" width="11" height="18" rx="3" fill="#3C0000"/>
<rect x="52" y="5" width="11" height="18" rx="3" fill="#3C0000"/>
<rect x="73" y="5" width="11" height="18" rx="3" fill="#3C0000"/>
<rect x="94" y="5" width="11" height="18" rx="3" fill="#3C0000"/>
<rect x="115" y="5" width="11" height="18" rx="3" fill="#3C0000"/>
<rect x="136" y="5" width="11" height="18" rx="3" fill="#3C0000"/>
<rect x="157" y="5" width="11" height="18" rx="3" fill="#3C0000"/>
<rect x="178" y="5" width="11" height="18" rx="3" fill="#3C0000"/>
<rect x="199" y="5" width="11" height="18" rx="3" fill="#3C0000"/>
<rect x="220" y="5" width="11" height="18" rx="3" fill="#3C0000"/>
<rect x="241" y="5" width="11" height="18" rx="3" fill="#3C0000"/>
<rect x="262" y="5" width="11" height="18" rx="3" fill="#3C0000"/>
<rect x="283" y="5" width="11" height="18" rx="3" fill="#3C0000"/>
<rect x="304" y="5" width="11" height="18" rx="3" fill="#3C0000"/>
<rect x="325" y="5" width="11" height="18" rx="3" fill="#3C0000"/>
<rect x="346" y="5" width="11" height="18" rx="3" fill="#3C0000"/>
<rect x="367" y="5" width="11" height="18" rx="3" fill="#3C0000"/>
<rect x="388" y="5" width="11" height="18" rx="3" fill="#3C0000"/>
<rect x="409" y="5" width="11" height="18" rx="3" fill="#3C0000"/>
<rect x="430" y="5" width="11" height="18" rx="3" fill="#3C0000"/>
<rect x="451" y="5" width="11" height="18" rx="3" fill="#3C0000"/>
<rect x="472" y="5" width="11" height="18" rx="3" fill="#3C0000"/>
<rect x="493" y="5" width="11" height="18" rx="3" fill="#3C0000"/>
<rect x="514" y="5" width="11" height="18" rx="3" fill="#3C0000"/>
<rect x="535" y="5" width="11" height="18" rx="3" fill="#3C0000"/>
<rect x="556" y="5" width="11" height="18" rx="3" fill="#3C0000"/>
<rect x="577" y="5" width="11" height="18" rx="3" fill="#3C0000"/>
<rect x="598" y="5" width="11" height="18" rx="3" fill="#3C0000"/>
<rect x="619" y="5" width="11" height="18" rx="3" fill="#3C0000"/>
<rect x="640" y="5" width="11" height="18" rx="3" fill="#3C0000"/>
<rect x="661" y="5" width="11" height="18" rx="3" fill="#3C0000"/>
<rect x="682" y="5" width="11" height="18" rx="3" fill="#3C0000"/>
<rect x="703" y="5" width="11" height="18" rx="3" fill="#3C0000"/>
<rect x="724" y="5" width="11" height="18" rx="3" fill="#3C0000"/>
<rect x="745" y="5" width="11" height="18" rx="3" fill="#3C0000"/>
<rect x="766" y="5" width="11" height="18" rx="3" fill="#3C0000"/>
<rect x="787" y="5" width="11" height="18" rx="3" fill="#3C0000"/>
<rect x="808" y="5" width="11" height="18" rx="3" fill="#3C0000"/>
<rect x="829" y="5" width="11" height="18" rx="3" fill="#3C0000"/>
<rect x="850" y="5" width="11" height="18" rx="3" fill="#3C0000"/>
<rect x="871" y="5" width="11" height="18" rx="3" fill="#3C0000"/>
<rect x="892" y="5" width="11" height="18" rx="3" fill="#3C0000"/>
<rect x="913" y="5" width="11" height="18" rx="3" fill="#3C0000"/>
<rect x="934" y="5" width="11" height="18" rx="3" fill="#3C0000"/>
<rect x="955" y="5" width="11" height="18" rx="3" fill="#3C0000"/>
<rect x="976" y="5" width="11" height="18" rx="3" fill="#3C0000"/>
<rect x="997" y="5" width="11" height="18" rx="3" fill="#3C0000"/>
<rect x="1018" y="5" width="11" height="18" rx="3" fill="#3C0000"/>
<rect x="1039" y="5" width="11" height="18" rx="3" fill="#3C0000"/>
<rect x="1060" y="5" width="11" height="18" rx="3" fill="#3C0000"/>
<rect x="1081" y="5" width="11" height="18" rx="3" fill="#3C0000"/>
<rect x="1102" y="5" width="11" height="18" rx="3" fill="#3C0000"/>
<rect x="1123" y="5" width="11" height="18" rx="3" fill="#3C0000"/>
<rect x="1144" y="5" width="11" height="18" rx="3" fill="#3C0000"/>
<rect x="1165" y="5" width="11" height="18" rx="3" fill="#3C0000"/>
<rect x="1186" y="5" width="11" height="18" rx="3" fill="#3C0000"/>
<rect x="1207" y="5" width="11" height="18" rx="3" fill="#3C0000"/>
<rect x="1228" y="5" width="11" height="18" rx="3" fill="#3C0000"/>
<rect x="1249" y="5" width="11" height="18" rx="3" fill="#3C0000"/>
<rect x="1270" y="5" width="11" height="18" rx="3" fill="#3C0000"/>
<rect x="1291" y="5" width="11" height="18" rx="3" fill="#3C0000"/>
<rect x="1312" y="5" width="11" height="18" rx="3" fill="#3C0000"/>
<rect x="1333" y="5" width="11" height="18" rx="3" fill="#3C0000"/>
<rect x="1354" y="5" width="11" height="18" rx="3" fill="#3C0000"/>
<rect x="1375" y="5" width="11" height="18" rx="3" fill="#3C0000"/>
<rect x="1396" y="5" width="11" height="18" rx="3" fill="#3C0000"/>
<rect x="1417" y="5" width="11" height="18" rx="3" fill="#3C0000"/>
<rect x="1438" y="5" width="11" height="18" rx="3" fill="#3C0000"/>
<rect x="1459" y="5" width="11" height="18" rx="3" fill="#3C0000"/>
<rect x="1480" y="5" width="11" height="18" rx="3" fill="#3C0000"/>
<rect x="1501" y="5" width="11" height="18" rx="3" fill="#3C0000"/>
<rect x="1522" y="5" width="11" height="18" rx="3" fill="#3C0000"/>
<rect x="1543" y="5" width="11" height="18" rx="3" fill="#3C0000"/>
<rect x="1564" y="5" width="11" height="18" rx="3" fill="#3C0000"/>
<rect x="1585" y="5" width="11" height="18" rx="3" fill="#3C0000"/>
<rect x="1606" y="5" width="11" height="18" rx="3" fill="#3C0000"/>
<rect x="1627" y="5" width="11" height="18" rx="3" fill="#3C0000"/>
<rect x="1648" y="5" width="11" height="18" rx="3" fill="#3C0000"/>
<rect x="1669" y="5" width="11" height="18" rx="3" fill="#3C0000"/>
<rect x="1690" y="5" width="11" height="18" rx="3" fill="#3C0000"/>
<rect x="1711" y="5" width="11" height="18" rx="3" fill="#3C0000"/>
<rect x="1732" y="5" width="11" height="18" rx="3" fill="#3C0000"/>
<rect x="1753" y="5" width="11" height="18" rx="3" fill="#3C0000"/>
<rect x="1774" y="5" width="11" height="18" rx="3" fill="#3C0000"/>
<rect x="1795" y="5" width="11" height="18" rx="3" fill="#3C0000"/>
<rect x="1816" y="5" width="11" height="18" rx="3" fill="#3C0000"/>
<rect x="1837" y="5" width="11" height="18" rx="3" fill="#3C0000"/>
<rect x="1858" y="5" width="11" height="18" rx="3" fill="#3C0000"/>
<rect x="1879" y="5" width="11" height="18" rx="3" fill="#3C0000"/>
<rect x="1900" y="5" width="11" height="18" rx="3" fill="#3C0000"/>
</svg>
