<svg width="100%" height="26" viewBox="0 0 414 26" fill="none" xmlns="http://www.w3.org/2000/svg">
<rect x="0.5" y="0.5" width="100%" height="25" fill="#E57C5E" />
<rect x="379" y="6" width="7" height="14" rx="2" fill="#3C0000"/>
<rect x="398" y="6" width="8" height="14" rx="2" fill="#3C0000"/>
<rect x="359" y="6" width="8" height="14" rx="2" fill="#3C0000"/>
<rect x="339" y="6" width="8" height="14" rx="2" fill="#3C0000"/>
<rect x="320" y="6" width="8" height="14" rx="2" fill="#3C0000"/>
<rect x="300" y="6" width="8" height="14" rx="2" fill="#3C0000"/>
<rect x="281" y="6" width="7" height="14" rx="2" fill="#3C0000"/>
<rect x="261" y="6" width="8" height="14" rx="2" fill="#3C0000"/>
<rect x="241" y="6" width="8" height="14" rx="2" fill="#3C0000"/>
<rect x="222" y="6" width="8" height="14" rx="2" fill="#3C0000"/>
<rect x="202" y="6" width="8" height="14" rx="2" fill="#3C0000"/>
<rect x="182" y="6" width="8" height="14" rx="2" fill="#3C0000"/>
<rect x="163" y="6" width="8" height="14" rx="2" fill="#3C0000"/>
<rect x="143" y="6" width="8" height="14" rx="2" fill="#3C0000"/>
<rect x="124" y="6" width="7" height="14" rx="2" fill="#3C0000"/>
<rect x="104" y="6" width="8" height="14" rx="2" fill="#3C0000"/>
<rect x="84" y="6" width="8" height="14" rx="2" fill="#3C0000"/>
<rect x="65" y="6" width="8" height="14" rx="2" fill="#3C0000"/>
<rect x="45" y="6" width="8" height="14" rx="2" fill="#3C0000"/>
<rect x="26" y="6" width="7" height="14" rx="2" fill="#3C0000"/>
<rect x="6" y="6" width="8" height="14" rx="2" fill="#3C0000"/>
<rect x="379" y="6" width="7" height="14" rx="2" fill="#3C0000"/>
<rect x="398" y="6" width="8" height="14" rx="2" fill="#3C0000"/>
<rect x="359" y="6" width="8" height="14" rx="2" fill="#3C0000"/>
<rect x="339" y="6" width="8" height="14" rx="2" fill="#3C0000"/>
<rect x="320" y="6" width="8" height="14" rx="2" fill="#3C0000"/>
<rect x="300" y="6" width="8" height="14" rx="2" fill="#3C0000"/>
<rect x="281" y="6" width="7" height="14" rx="2" fill="#3C0000"/>
<rect x="261" y="6" width="8" height="14" rx="2" fill="#3C0000"/>
<rect x="241" y="6" width="8" height="14" rx="2" fill="#3C0000"/>
<rect x="222" y="6" width="8" height="14" rx="2" fill="#3C0000"/>
<rect x="202" y="6" width="8" height="14" rx="2" fill="#3C0000"/>
<rect x="182" y="6" width="8" height="14" rx="2" fill="#3C0000"/>
<rect x="163" y="6" width="8" height="14" rx="2" fill="#3C0000"/>
<rect x="143" y="6" width="8" height="14" rx="2" fill="#3C0000"/>
<rect x="124" y="6" width="7" height="14" rx="2" fill="#3C0000"/>
<rect x="104" y="6" width="8" height="14" rx="2" fill="#3C0000"/>
<rect x="84" y="6" width="8" height="14" rx="2" fill="#3C0000"/>
<rect x="65" y="6" width="8" height="14" rx="2" fill="#3C0000"/>
<rect x="45" y="6" width="8" height="14" rx="2" fill="#3C0000"/>
<rect x="26" y="6" width="7" height="14" rx="2" fill="#3C0000"/>
<rect x="6" y="6" width="8" height="14" rx="2" fill="#3C0000"/>
</svg>
