<svg width="22" height="18" viewBox="0 0 22 18" fill="none" xmlns="http://www.w3.org/2000/svg">
<path d="M18.6239 1.80923C17.2217 1.16584 15.7181 0.691821 14.1459 0.420328C14.1173 0.415089 14.0887 0.428183 14.0739 0.454372C13.8805 0.798319 13.6663 1.24703 13.5163 1.59971C11.8254 1.34655 10.1431 1.34655 8.48679 1.59971C8.33676 1.23919 8.11478 0.798319 7.92053 0.454372C7.90578 0.429057 7.87718 0.415962 7.84855 0.420328C6.27725 0.690953 4.7736 1.16498 3.37052 1.80923C3.35838 1.81447 3.34797 1.82321 3.34106 1.83455C0.488942 6.09555 -0.292371 10.2518 0.0909151 14.3565C0.0926494 14.3766 0.103922 14.3958 0.119532 14.408C2.00127 15.79 3.82406 16.6289 5.61301 17.185C5.64164 17.1937 5.67197 17.1832 5.69019 17.1597C6.11337 16.5818 6.49059 15.9724 6.81402 15.3316C6.83311 15.2941 6.81489 15.2496 6.77588 15.2348C6.17754 15.0078 5.6078 14.731 5.05975 14.4168C5.0164 14.3915 5.01293 14.3295 5.05281 14.2998C5.16814 14.2134 5.2835 14.1234 5.39363 14.0327C5.41355 14.0161 5.44131 14.0126 5.46474 14.023C9.06518 15.6669 12.9631 15.6669 16.521 14.023C16.5445 14.0117 16.5722 14.0152 16.593 14.0318C16.7032 14.1226 16.8185 14.2134 16.9347 14.2998C16.9746 14.3295 16.972 14.3915 16.9286 14.4168C16.3806 14.7371 15.8108 15.0078 15.2116 15.2339C15.1726 15.2487 15.1553 15.2941 15.1744 15.3316C15.5047 15.9715 15.882 16.5809 16.2973 17.1588C16.3147 17.1832 16.3459 17.1937 16.3745 17.185C18.1721 16.6289 19.9949 15.79 21.8766 14.408C21.8931 14.3958 21.9035 14.3775 21.9053 14.3574C22.364 9.61189 21.1369 5.48971 18.6525 1.83542C18.6465 1.82321 18.6361 1.81447 18.6239 1.80923ZM7.35169 11.8572C6.26771 11.8572 5.37454 10.862 5.37454 9.63984C5.37454 8.41766 6.25039 7.42249 7.35169 7.42249C8.46163 7.42249 9.34616 8.4264 9.32881 9.63984C9.32881 10.862 8.45296 11.8572 7.35169 11.8572ZM14.6619 11.8572C13.5779 11.8572 12.6847 10.862 12.6847 9.63984C12.6847 8.41766 13.5606 7.42249 14.6619 7.42249C15.7718 7.42249 16.6563 8.4264 16.639 9.63984C16.639 10.862 15.7718 11.8572 14.6619 11.8572Z" fill="white"/>
</svg>
