<svg width="16" height="16" viewBox="0 0 16 16" fill="none" xmlns="http://www.w3.org/2000/svg">
<g clip-path="url(#clip0_235_15809)">
<path d="M7.73985 2.08887C9.73217 2.08887 9.96811 2.09761 10.7516 2.13256C11.4798 2.1646 11.873 2.28694 12.1352 2.38889C12.4818 2.52287 12.7323 2.68599 12.9915 2.94522C13.2537 3.20737 13.4139 3.45495 13.5479 3.80157C13.6498 4.06372 13.7722 4.45985 13.8042 5.18513C13.8392 5.97157 13.8479 6.20751 13.8479 8.19692C13.8479 10.1892 13.8392 10.4252 13.8042 11.2087C13.7722 11.9369 13.6498 12.3301 13.5479 12.5923C13.4139 12.9389 13.2508 13.1894 12.9915 13.4486C12.7294 13.7108 12.4818 13.871 12.1352 14.0049C11.873 14.1069 11.4769 14.2292 10.7516 14.2613C9.96519 14.2962 9.72926 14.305 7.73985 14.305C5.74753 14.305 5.5116 14.2962 4.72806 14.2613C3.99988 14.2292 3.60665 14.1069 3.34451 14.0049C2.99789 13.871 2.74739 13.7078 2.48816 13.4486C2.22601 13.1865 2.06581 12.9389 1.93182 12.5923C1.82987 12.3301 1.70754 11.934 1.6755 11.2087C1.64055 10.4223 1.63181 10.1863 1.63181 8.19692C1.63181 6.20459 1.64055 5.96866 1.6755 5.18513C1.70754 4.45694 1.82987 4.06372 1.93182 3.80157C2.06581 3.45495 2.22892 3.20446 2.48816 2.94522C2.7503 2.68307 2.99789 2.52287 3.34451 2.38889C3.60665 2.28694 4.00279 2.1646 4.72806 2.13256C5.5116 2.09761 5.74753 2.08887 7.73985 2.08887ZM7.73985 0.746094C5.71549 0.746094 5.46208 0.754832 4.6669 0.789785C3.87463 0.824738 3.32994 0.952899 2.85808 1.1364C2.36582 1.32864 1.9493 1.58205 1.53569 1.99858C1.11916 2.41219 0.865754 2.82871 0.673512 3.31805C0.490009 3.79283 0.361847 4.33461 0.326894 5.12687C0.291941 5.92497 0.283203 6.17838 0.283203 8.20274C0.283203 10.2271 0.291941 10.4805 0.326894 11.2757C0.361847 12.068 0.490009 12.6126 0.673512 13.0845C0.865754 13.5768 1.11916 13.9933 1.53569 14.4069C1.9493 14.8205 2.36582 15.0768 2.85516 15.2662C3.32994 15.4497 3.87171 15.5778 4.66398 15.6128C5.45917 15.6477 5.71257 15.6565 7.73694 15.6565C9.7613 15.6565 10.0147 15.6477 10.8099 15.6128C11.6022 15.5778 12.1468 15.4497 12.6187 15.2662C13.1081 15.0768 13.5246 14.8205 13.9382 14.4069C14.3518 13.9933 14.6081 13.5768 14.7975 13.0874C14.981 12.6127 15.1091 12.0709 15.1441 11.2786C15.179 10.4834 15.1878 10.23 15.1878 8.20565C15.1878 6.18129 15.179 5.92788 15.1441 5.1327C15.1091 4.34043 14.981 3.79575 14.7975 3.32388C14.6139 2.82871 14.3605 2.41219 13.944 1.99858C13.5304 1.58497 13.1139 1.32864 12.6245 1.13932C12.1498 0.955812 11.608 0.827651 10.8157 0.792698C10.0176 0.754832 9.76421 0.746094 7.73985 0.746094Z" fill="white"/>
<path d="M7.73994 4.37207C5.62528 4.37207 3.90967 6.08768 3.90967 8.20234C3.90967 10.317 5.62528 12.0326 7.73994 12.0326C9.8546 12.0326 11.5702 10.317 11.5702 8.20234C11.5702 6.08768 9.8546 4.37207 7.73994 4.37207ZM7.73994 10.6869C6.36803 10.6869 5.25536 9.57425 5.25536 8.20234C5.25536 6.83043 6.36803 5.71776 7.73994 5.71776C9.11184 5.71776 10.2245 6.83043 10.2245 8.20234C10.2245 9.57425 9.11184 10.6869 7.73994 10.6869Z" fill="white"/>
<path d="M12.6158 4.22136C12.6158 4.71653 12.2139 5.11558 11.7216 5.11558C11.2264 5.11558 10.8274 4.71362 10.8274 4.22136C10.8274 3.7262 11.2294 3.32715 11.7216 3.32715C12.2139 3.32715 12.6158 3.72911 12.6158 4.22136Z" fill="white"/>
</g>
<defs>
<clipPath id="clip0_235_15809">
<rect width="14.9133" height="14.9133" fill="white" transform="translate(0.283203 0.746094)"/>
</clipPath>
</defs>
</svg>
