<svg width="15" height="15" viewBox="0 0 15 15" fill="none" xmlns="http://www.w3.org/2000/svg">
<path d="M0.219583 10.3339H4.00834C4.00834 10.3339 3.88134 11.0942 4.41091 11.6817C4.94048 12.2693 6.80476 12.0965 6.80476 12.0965V10.3339H4.91044C4.91044 10.3339 6.44399 8.53669 6.50406 5.80634C6.56425 3.07598 4.85026 1.00222 4.85026 1.00222C4.85026 1.00222 6.59428 1.14045 6.80476 1.4169V0.452084C6.80476 0.202414 6.98087 0 7.1982 0H7.67432C7.89154 0 8.06776 0.202414 8.06776 0.452215V1.86636C8.06776 1.86636 11.1349 3.87094 11.2851 6.63582C11.4354 9.40069 8.21805 10.4031 8.21805 10.4031V12.1203C8.21805 12.1203 9.33064 12.1312 9.96208 11.8893C10.5935 11.6473 11.3337 10.5641 12.2707 10.1223C12.9304 9.81117 14.5025 9.43535 14.8333 9.57357C15.164 9.7118 14.916 10.3353 14.8107 10.4087C14.7593 10.4445 14.117 10.7962 13.5561 11.4377C13.2995 11.7312 11.8564 14.7924 11.1047 14.8614C10.353 14.9306 3.25664 14.9306 2.9259 14.8614C2.59505 14.7924 0.520285 12.9605 0.219583 11.6127C-0.0811192 10.2648 0.219583 10.3339 0.219583 10.3339Z" fill="white"/>
<path d="M4.41153 2.73047L1.15234 8.81326H4.58021C4.58021 8.81326 5.42213 7.67268 5.30187 6.01372C5.18162 4.3549 4.69373 2.83417 4.41153 2.73047Z" fill="white"/>
</svg>
