<svg width="15" height="16" viewBox="0 0 15 16" fill="none" xmlns="http://www.w3.org/2000/svg">
<g clip-path="url(#clip0_235_15808)">
<path d="M4.69157 14.2611C10.3178 14.2611 13.396 9.59861 13.396 5.55658C13.396 5.42551 13.3931 5.29152 13.3873 5.16045C13.9861 4.7274 14.5029 4.19102 14.9133 3.57649C14.3556 3.82461 13.7635 3.98666 13.1572 4.0571C13.7956 3.67443 14.2736 3.07328 14.5026 2.36508C13.902 2.721 13.2452 2.97208 12.5604 3.10754C12.0989 2.61723 11.4888 2.29259 10.8244 2.18381C10.1599 2.07503 9.47814 2.18816 8.88443 2.50572C8.29073 2.82327 7.81817 3.32757 7.53982 3.94063C7.26147 4.5537 7.19282 5.24139 7.34451 5.89737C6.12843 5.83635 4.93875 5.52044 3.85259 4.97014C2.76643 4.41984 1.80805 3.64742 1.03956 2.70296C0.648977 3.37637 0.529457 4.17324 0.705294 4.93161C0.88113 5.68998 1.33913 6.35294 1.98621 6.78576C1.50042 6.77034 1.02527 6.63955 0.600027 6.40419V6.44206C0.599592 7.14876 0.843905 7.8338 1.29144 8.38073C1.73897 8.92767 2.36209 9.30274 3.0549 9.44219C2.60489 9.56532 2.13259 9.58326 1.67454 9.49462C1.87004 10.1024 2.2504 10.634 2.76255 11.0151C3.27469 11.3963 3.89307 11.6081 4.53137 11.6209C3.44772 12.4722 2.1091 12.9339 0.731101 12.9317C0.486725 12.9313 0.242589 12.9163 0 12.8868C1.3999 13.7849 3.02835 14.2619 4.69157 14.2611Z" fill="white"/>
</g>
<defs>
<clipPath id="clip0_235_15808">
<rect width="14.9133" height="14.9133" fill="white" transform="translate(0 0.746094)"/>
</clipPath>
</defs>
</svg>
